<svg version="1" xmlns="http://www.w3.org/2000/svg" width="933.333" height="933.333" viewBox="0 0 700.000000 700.000000"><path d="M479 2.2c-3 1.1-7.1 3.2-9 4.7-1.9 1.4-107 106.1-233.6 232.7C34.2 441.8 5.9 470.5 3.4 475.6l-2.9 5.9v193l2.8 6.1c3.5 7.6 8.4 12.5 16.2 16.1l6 2.8h193l5.6-2.6c4.8-2.3 34.6-31.7 235.5-232.6C586 337.9 690.9 232.7 692.5 230.6c8.4-10.5 9.5-25.9 2.7-37.5-1.5-2.7-39.7-41.6-92.2-94-49.3-49.3-90.7-90.5-92.1-91.6-7.9-6.6-22-8.9-31.9-5.3zM553 147l63 63-210 210-210 210H70V504l209.8-209.9c115.3-115.5 209.8-210 209.9-210 .2-.1 28.6 28.2 63.3 62.9z"/></svg>