<svg version="1.1" xmlns="http://www.w3.org/2000/svg" class="logo-homepage-svg" viewBox="0 0 400 105"><path class="logo-homepage-path" d="M385.09,36.94a4.78,4.78,0,0,1-.05,2.36c-.79,5.64-7.58,9.66-12.27,11.68-2.5,1.08-5.87,1.53-7.59,3.81a5.49,5.49,0,0,0,.54,7.18c3.72,3.24,13.11,2.15,17.42,1,3.28-.86,6.3-2.54,9.64-3.25,3-.64,9.06.07,6.68,4.72-1.81,3.54-7.71,5.59-11.28,6.77-7,2.31-10.21,2.24-17.52,2.26a24.69,24.69,0,0,1-10.26-2.14c-4.11-1.84-5.92-5.13-6.58-9.14a76.85,76.85,0,0,1-.46-7.72c0-.33-.22-.86-.46-.95-2.08-.73-2.43-2.61-2.72-4.28-.62-3.57.76-6.5,4.19-7.63a2.31,2.31,0,0,0,1.13-1.2c.35-.78.42-1.67.76-2.45.44-1,.1-1.27-.88-1.16L345,38a66.67,66.67,0,0,1-6.67.66c-1.35,0-1.71.53-1.89,1.64-.71,4.43-1.24,9.9-2.25,14.27-1.35,5.89-1.22,11.69-2.82,17.52-.31,1.14-2.79,2.55-4,2.4-2.28-.27-4.43-.81-5.49-3.12a4.29,4.29,0,0,1-.32-1.43c-.24-2.94.63-5.36,1.29-8.07,1.39-5.7,1.64-11.45,2.9-17.18.27-1.23.47-3.48.82-4.69s0-1.37-1.09-1.27c-4.1.37-8.2.68-12.3,1.06a5.4,5.4,0,0,1-5.54-4.4,8.16,8.16,0,0,1,.42-4.5c.74-1.71,1.94-2,3.46-2,1.82,0,3.65.35,5.46.28,3.4-.13,6.8-.4,10.19-.72a1.61,1.61,0,0,0,1-1.11c.55-3.7,1-6.41,1.47-10.12.59-4.62,0,0,.59-4.62.22-1.64-.12-2.82.24-4.44s.76-3.47,1.19-5.2A4.41,4.41,0,0,1,337.1.21a23.92,23.92,0,0,1,3.53,1.55,2.3,2.3,0,0,1,1.21,2.59c-1.2,7.2-1.33,4.75-2.47,12-.64,4-.3,7.1-1,11.12-.21,1.18.11,1.42,1.21,1.37q9.13-.42,18.26-.74c.91,0,1.83.23,2.75.24a13.71,13.71,0,0,0,3.8-.2c4.17-1.2,8.36-1.38,12.24.5,3.4,1.65,6.73,3.9,8.22,7.69.3.75.26.66.26.66M371.2,36a9,9,0,0,0-1.89.46c-1.23.47-3.69,2-4,3.34-.39,1.63,1.72,2.06,3,1.95a8.1,8.1,0,0,0,4.13-1.85c.84-.65,2.73-2.08,1.83-3.26C373.7,35.88,372.39,35.82,371.2,36Z"/><path class="logo-homepage-path" d="M290.48,26.6a29.88,29.88,0,0,1,6.35,1,15,15,0,0,1,6.55,4A14,14,0,0,1,305.69,35a12.88,12.88,0,0,1,1,3.42c.56,3.55.17,8.14.24,11.71.1,5.1-2.16,9.73-4.43,14.34a19.56,19.56,0,0,1-7.25,7.9c-4.89,3.17-10.48,2.06-14.32-1.15a24.28,24.28,0,0,1-7.66-12.55,27,27,0,0,1-.45-13.42,29,29,0,0,1,2.1-5.09c.51-1.05.12-1.45-1-1.51-1.29-.06-1.43-.66-1.63-1.7-.51-2.76.58-4,3.64-4.91a23.9,23.9,0,0,0,5.21-2.73,22.55,22.55,0,0,1,5.72-2.43A12.54,12.54,0,0,1,290.48,26.6Zm-8.4,23a23.93,23.93,0,0,0,1.52,8.34c.67,2,2.63,6.85,5.81,6,2.72-.68,4.54-4.46,5.69-6.48,2.81-4.93,5.23-11.07,4.2-16.59a9.09,9.09,0,0,0-3.07-5.41c-1.54-1.11-4.88-1.11-6.73-.64-3.29.85-5.23,2.58-6,5.55a66.59,66.59,0,0,0-1.34,7.05C282.14,47.83,282.1,49.22,282.09,49.59Z"/><path class="logo-homepage-path" d="M244,31.25c-.16.86-.35,1.72-.48,2.59,0,.2.11.42.18.63.2-.12.46-.21.58-.37,2-2.85,5-5.76,8.53-6.61a11.56,11.56,0,0,1,8.43,1.59c4.26,2.4,4.76,6.61,5.48,10.34A68.32,68.32,0,0,1,267.32,54c-.24,6-1,12-1.55,18-.11,1.17-.5,2.13-2.41,1.76-.89-.17-2,.76-3,.68a6.89,6.89,0,0,1-2.85-1.21,5.11,5.11,0,0,1-1.77-1.78c-1.67-2.71.45-4.85.59-7.23.27-4.69.94-9.38,1.57-14a29.41,29.41,0,0,0-.88-12,4.42,4.42,0,0,0-.34-1s-1.09-1.78-3.26-.21C250,39.28,247,44,245.28,47.22c-3.76,7-5.56,14-7.53,21.61a10.31,10.31,0,0,0-.27,2.46c0,2.38-1.58,3.59-4.23,3.29a9,9,0,0,0-1.74,0c-1.3.1-3.64-1.44-4.22-2.47-1.21-2.19-.43-4.37-.11-6.52.64-4.3,1.5-8.58,2.23-12.87.59-3.49,1.14-7,1.68-10.48.66-4.27,1.29-8.53,1.95-12.8.44-2.83,4.49-4.65,7.28-3.21C242.46,27.3,244.3,28.65,244,31.25Z"/><path class="logo-homepage-path" d="M224.4,40.81c-.84,9.35-1.37,15.86-2.49,23.76-.58,4.1-1.54,7.77-2.33,12.35A46.62,46.62,0,0,1,210.5,95.6c-3.48,4.48-7.32,8.56-13.91,9.31a13.38,13.38,0,0,1-13.46-7.21c-2.18-4.66-5-12.59,1.14-14.32,8.54-1.64,3.26,7.61,8.07,11.11,5.39,3.93,12.7-5.12,15.25-11.26a86,86,0,0,0,5.72-23.4c0-.29-.2-.61-.31-.91a5.94,5.94,0,0,0-.64.58c-1.93,2.33-3.59,4.88-5.84,6.94-3.12,2.84-6,6.13-11.18,6.41a6.23,6.23,0,0,1-5.87-3.26,22,22,0,0,1-3-13.74c.78-5.72,1.93-11.4,3.11-17.07a57.83,57.83,0,0,1,2.53-8.68c.89-2.35,2.79-3.06,5.82-2.71a4.91,4.91,0,0,1,4.32,3.86c.8,2.91-.75,5.44-1.43,8.1-1.06,4.14-2.46,8.2-3.49,12.35-.31,1.25-2.5,9.08.94,8.05,1.91-.57,3.65-3.32,4.77-4.63a68.55,68.55,0,0,0,5.1-6.61c2.21-3.36,3.67-8,4.61-11.81.48-1.94.6-4,1-5.93C214,29.1,215,27.49,217,27.3c1.78-.18,3.74-.25,5.46,1,2.31,1.73,2.39,3.63,2,6.32A55.28,55.28,0,0,0,224.4,40.81Z"/><path class="logo-homepage-path" d="M154.79,33c.14,1.63.23,2.92.38,4.21a8.14,8.14,0,0,0,.36,1.29c.31-.32.66-.62.94-1,2.27-2.85,4.45-4.76,6.84-7.5a11.86,11.86,0,0,1,3.79-2.87c4.94-2.3,7.35-1.29,10.35,2.76s3.25,7.6,3.51,12.26a86,86,0,0,1,.21,11.51c-.41,5.12-1.36,12.25-2.06,17.36a3.16,3.16,0,0,1-2.25,2.74,15.77,15.77,0,0,1-4.72,1.13c-1.65,0-3.74-2.87-2.43-5.39,2.37-4.56,2.26-11.47,2.36-16.29.08-4.31-.13-8.59.13-12.89.1-1.65.71-6.13-2.15-6.07-1.61,0-2.7,1.62-3.3,2.74a120.25,120.25,0,0,0-9.7,24.5c-1,3.66-1.68,5.39-2.52,9.1a4.52,4.52,0,0,1-2.46,3c-3.4,1.87-7.65.6-8-2.66a13.14,13.14,0,0,1,.94-5c2.25-7,2.27-12.1,1.55-19.21-.49-4.87-1.16-9.72-1.57-14.6a3.18,3.18,0,0,1,1.94-3c2.66-1.44,4.88-1.08,6.65,1A9.33,9.33,0,0,1,154.79,33Z"/><path class="logo-homepage-path" d="M105,58.15A20.49,20.49,0,0,1,106.38,47a9.28,9.28,0,0,1,1.07-1.43,3.51,3.51,0,0,0,0-4.36c-.57-.92-.14-1.66.31-2.9,2-5.63,6.55-8.87,12.19-10.9a15.85,15.85,0,0,1,12.26.56c3,1.33,5.17,3.3,6,6.44.7,2.53,2,4,2.15,6.55a33.49,33.49,0,0,1-1.07,10.5A65.36,65.36,0,0,1,134.24,64a20.53,20.53,0,0,1-11.12,10.07c-3.06,1.13-6,1.53-8.95-.47-5.37-3.59-8.07-8.55-9-14.61C105.09,58.74,105,58.45,105,58.15Zm10,.48c.43,1.25,1.08,3.2,1.77,5.13a4.3,4.3,0,0,0,.53.91c1.1,1.64,2.23,1.87,3.79.6A22.12,22.12,0,0,0,124.5,62,36.83,36.83,0,0,0,132,42.63c.29-2.63.5-4.31-.69-6.79a6.16,6.16,0,0,0-1.58-2.47c-2.52-1.77-7.23-1.2-9.06,1.31s-4.53,3.54-3.58,7c.1.38-.43.92-.65,1.39a3.41,3.41,0,0,0-.35.84,24.84,24.84,0,0,1-.46,3.07A24.86,24.86,0,0,0,115,58.63Z"/><path class="logo-homepage-path" d="M100.27,45.91a77.83,77.83,0,0,1-2.69,19.92A48.46,48.46,0,0,1,94.73,73c-.62,1.4-2.73,2.12-4.5,2a6.41,6.41,0,0,1-4.08-1.25c-1.1-.89-2.28-3.42-1.5-4.56,4.31-6.34,5.06-14.48,5.54-21.58.24-3.61-.43-7.27-.73-10.9a5.25,5.25,0,0,0-.58-1.43,14.68,14.68,0,0,0-1.29.75A36.91,36.91,0,0,0,75.85,50.78c-2.64,5.7-5,11.5-7.48,17.27a35.57,35.57,0,0,0-1.07,3.59,2.78,2.78,0,0,1-2.81,2.27c-1.2.07-2.21.77-3.61.07-1.78-.9-3.25-1.74-4.13-3.55s-.09-3.2.66-4.67A43.43,43.43,0,0,0,62.6,48.31c.25-4.53.81-9,1.17-13.56a13.94,13.94,0,0,0-.13-3.32c-.38-2.37,0-2.61,2.46-3.63,2.19-.9,3.83-.24,5.55.68,2.11,1.13,2.11,3.07,2.34,4.92a7.13,7.13,0,0,1,0,1,4.46,4.46,0,0,0,.93-.58A30.21,30.21,0,0,1,85.77,26.4a12.26,12.26,0,0,1,4.45-.46c2.57,0,6.48,2.72,7.09,4.9.7,2.5,1.32,5,1.82,7.58S99.9,43.41,100.27,45.91Z"/><path class="logo-homepage-path" d="M49.06,28.25c-.12,2.28,0,1.24-.05,3.52C49,33.42,49,34,50.84,33.64l4.05-.78c.52-.1,2.17-.73,2.46,0,.37.94-2.42,1.52-3,1.71,1.35,0,5.58-1.52,6.49-.14,1.21,1.85-3.27,2.65-4.31,3l1.09-.4c-2.69,1-5.37,2.08-8.06,3.07a1.86,1.86,0,0,0-1.1,1.23c-.55,4.78-.95,9.55-1.89,14.32A88.54,88.54,0,0,0,45.4,71.44c0,3-2.29,4.44-5,3.4C37,73.53,35,69.13,35.7,65.28,37,58,38,50.67,39.24,43.37,39.48,42,38.91,42,38,42.22c-2.88.59-1.86.89-4.61,1.85-6,2.09-11.84,4.47-17.71,6.84a3,3,0,0,0-1.44,1.89C12.77,58.51,11.45,64.24,10.11,70c-.16.68-.27,1.38-.4,2.07-.41,2.21-2.21,3.17-4.48,3.08-3-.11-3.8-2.41-5.11-4.25-.22-.3-.09-.93,0-1.36,1-3.72,2.14-7.42,3.15-11.14.7-2.58,1.36-5.18,1.88-7.81.22-1.11,0-2.31.06-3.46.09-1,.11-2.16.69-2.8,1.25-1.37,1.4-3,1.83-4.59,1.34-5.12,2.68-6.33,4.36-11.35,1.54-4.28,2.28-5.24,3.89-9.08l5.36-9.8c4.25-6.14,4-6.06,6.36-8.12A5.43,5.43,0,0,1,32.09.07c5.75.84,9.22,7.11,12,11.68,1.31,3.09,0,0,2.78,6.82A38.31,38.31,0,0,1,49.06,28.25Zm-9.19.87a23.59,23.59,0,0,0-.76-4C38,20.57,32.84,7.62,28.48,15.52s-1.53,3.1-2.82,5,0,0-2.87,5.45a82.56,82.56,0,0,0-5.66,13.57,3.85,3.85,0,0,0-.06,1,5.53,5.53,0,0,0,.85-.13l11.32-3.58c4.53-1.44,6.94-2.28,9.92-2.69a1.05,1.05,0,0,0,.72-.73A15.28,15.28,0,0,0,39.88,29.11Z"/></svg>